<mxfile host="65bd71144e">
    <diagram name="Cat_1" id="0cNxYirCoF3FAIngxuJC">
        <mxGraphModel dx="658" dy="617" grid="1" gridSize="10" guides="1" tooltips="1" connect="1" arrows="1" fold="1" page="1" pageScale="1" pageWidth="827" pageHeight="1169" math="0" shadow="0">
            <root>
                <mxCell id="2RfNIHYXHJ-OlTvXYvh6-0"/>
                <mxCell id="2RfNIHYXHJ-OlTvXYvh6-1" parent="2RfNIHYXHJ-OlTvXYvh6-0"/>
                <mxCell id="2RfNIHYXHJ-OlTvXYvh6-2" value="Cat" style="swimlane;fontStyle=1;align=center;verticalAlign=top;childLayout=stackLayout;horizontal=1;startSize=26;horizontalStack=0;resizeParent=1;resizeParentMax=0;resizeLast=0;collapsible=1;marginBottom=0;" parent="2RfNIHYXHJ-OlTvXYvh6-1" vertex="1">
                    <mxGeometry x="260" y="150" width="210" height="170" as="geometry">
                        <mxRectangle x="500" y="110" width="100" height="26" as="alternateBounds"/>
                    </mxGeometry>
                </mxCell>
                <mxCell id="2RfNIHYXHJ-OlTvXYvh6-3" value="- name: String" style="text;strokeColor=none;fillColor=none;align=left;verticalAlign=top;spacingLeft=4;spacingRight=4;overflow=hidden;rotatable=0;points=[[0,0.5],[1,0.5]];portConstraint=eastwest;" parent="2RfNIHYXHJ-OlTvXYvh6-2" vertex="1">
                    <mxGeometry y="26" width="210" height="26" as="geometry"/>
                </mxCell>
                <mxCell id="2RfNIHYXHJ-OlTvXYvh6-4" value="- furColor: String" style="text;strokeColor=none;fillColor=none;align=left;verticalAlign=top;spacingLeft=4;spacingRight=4;overflow=hidden;rotatable=0;points=[[0,0.5],[1,0.5]];portConstraint=eastwest;" parent="2RfNIHYXHJ-OlTvXYvh6-2" vertex="1">
                    <mxGeometry y="52" width="210" height="26" as="geometry"/>
                </mxCell>
                <mxCell id="2RfNIHYXHJ-OlTvXYvh6-5" value="- age: int" style="text;strokeColor=none;fillColor=none;align=left;verticalAlign=top;spacingLeft=4;spacingRight=4;overflow=hidden;rotatable=0;points=[[0,0.5],[1,0.5]];portConstraint=eastwest;" parent="2RfNIHYXHJ-OlTvXYvh6-2" vertex="1">
                    <mxGeometry y="78" width="210" height="32" as="geometry"/>
                </mxCell>
                <mxCell id="2RfNIHYXHJ-OlTvXYvh6-6" value="" style="line;strokeWidth=1;fillColor=none;align=left;verticalAlign=middle;spacingTop=-1;spacingLeft=3;spacingRight=3;rotatable=0;labelPosition=right;points=[];portConstraint=eastwest;" parent="2RfNIHYXHJ-OlTvXYvh6-2" vertex="1">
                    <mxGeometry y="110" width="210" height="8" as="geometry"/>
                </mxCell>
                <mxCell id="2RfNIHYXHJ-OlTvXYvh6-7" value="+ getStringAttributes(String): String" style="text;strokeColor=none;fillColor=none;align=left;verticalAlign=top;spacingLeft=4;spacingRight=4;overflow=hidden;rotatable=0;points=[[0,0.5],[1,0.5]];portConstraint=eastwest;" parent="2RfNIHYXHJ-OlTvXYvh6-2" vertex="1">
                    <mxGeometry y="118" width="210" height="26" as="geometry"/>
                </mxCell>
                <mxCell id="2RfNIHYXHJ-OlTvXYvh6-9" value="+ getAge(): int" style="text;strokeColor=none;fillColor=none;align=left;verticalAlign=top;spacingLeft=4;spacingRight=4;overflow=hidden;rotatable=0;points=[[0,0.5],[1,0.5]];portConstraint=eastwest;" parent="2RfNIHYXHJ-OlTvXYvh6-2" vertex="1">
                    <mxGeometry y="144" width="210" height="26" as="geometry"/>
                </mxCell>
            </root>
        </mxGraphModel>
    </diagram>
    <diagram name="Cat_2" id="xhIRNsJ05YR9n5b2h-o0">
        <mxGraphModel dx="692" dy="617" grid="1" gridSize="10" guides="1" tooltips="1" connect="1" arrows="1" fold="1" page="1" pageScale="1" pageWidth="827" pageHeight="1169" math="0" shadow="0">
            <root>
                <mxCell id="XFF1efjOaS3Mmj5Ojrwr-0"/>
                <mxCell id="XFF1efjOaS3Mmj5Ojrwr-1" parent="XFF1efjOaS3Mmj5Ojrwr-0"/>
                <mxCell id="XFF1efjOaS3Mmj5Ojrwr-2" value="Cat" style="swimlane;fontStyle=1;align=center;verticalAlign=top;childLayout=stackLayout;horizontal=1;startSize=26;horizontalStack=0;resizeParent=1;resizeParentMax=0;resizeLast=0;collapsible=1;marginBottom=0;" parent="XFF1efjOaS3Mmj5Ojrwr-1" vertex="1">
                    <mxGeometry x="320" y="90" width="210" height="242" as="geometry">
                        <mxRectangle x="500" y="110" width="100" height="26" as="alternateBounds"/>
                    </mxGeometry>
                </mxCell>
                <mxCell id="XFF1efjOaS3Mmj5Ojrwr-3" value="- name: String" style="text;strokeColor=none;fillColor=none;align=left;verticalAlign=top;spacingLeft=4;spacingRight=4;overflow=hidden;rotatable=0;points=[[0,0.5],[1,0.5]];portConstraint=eastwest;" parent="XFF1efjOaS3Mmj5Ojrwr-2" vertex="1">
                    <mxGeometry y="26" width="210" height="26" as="geometry"/>
                </mxCell>
                <mxCell id="XFF1efjOaS3Mmj5Ojrwr-4" value="- furColor: String" style="text;strokeColor=none;fillColor=none;align=left;verticalAlign=top;spacingLeft=4;spacingRight=4;overflow=hidden;rotatable=0;points=[[0,0.5],[1,0.5]];portConstraint=eastwest;" parent="XFF1efjOaS3Mmj5Ojrwr-2" vertex="1">
                    <mxGeometry y="52" width="210" height="26" as="geometry"/>
                </mxCell>
                <mxCell id="XFF1efjOaS3Mmj5Ojrwr-5" value="- age: int" style="text;strokeColor=none;fillColor=none;align=left;verticalAlign=top;spacingLeft=4;spacingRight=4;overflow=hidden;rotatable=0;points=[[0,0.5],[1,0.5]];portConstraint=eastwest;" parent="XFF1efjOaS3Mmj5Ojrwr-2" vertex="1">
                    <mxGeometry y="78" width="210" height="26" as="geometry"/>
                </mxCell>
                <mxCell id="l7gWTdW5mP3U2acUqzkG-0" value="- isFemale: boolean" style="text;strokeColor=none;fillColor=none;align=left;verticalAlign=top;spacingLeft=4;spacingRight=4;overflow=hidden;rotatable=0;points=[[0,0.5],[1,0.5]];portConstraint=eastwest;" parent="XFF1efjOaS3Mmj5Ojrwr-2" vertex="1">
                    <mxGeometry y="104" width="210" height="26" as="geometry"/>
                </mxCell>
                <mxCell id="l7gWTdW5mP3U2acUqzkG-1" value="- counter: int" style="text;strokeColor=none;fillColor=none;align=left;verticalAlign=top;spacingLeft=4;spacingRight=4;overflow=hidden;rotatable=0;points=[[0,0.5],[1,0.5]];portConstraint=eastwest;" parent="XFF1efjOaS3Mmj5Ojrwr-2" vertex="1">
                    <mxGeometry y="130" width="210" height="26" as="geometry"/>
                </mxCell>
                <mxCell id="XFF1efjOaS3Mmj5Ojrwr-6" value="" style="line;strokeWidth=1;fillColor=none;align=left;verticalAlign=middle;spacingTop=-1;spacingLeft=3;spacingRight=3;rotatable=0;labelPosition=right;points=[];portConstraint=eastwest;" parent="XFF1efjOaS3Mmj5Ojrwr-2" vertex="1">
                    <mxGeometry y="156" width="210" height="8" as="geometry"/>
                </mxCell>
                <mxCell id="XFF1efjOaS3Mmj5Ojrwr-7" value="+ getStringAttributes(String): String" style="text;strokeColor=none;fillColor=none;align=left;verticalAlign=top;spacingLeft=4;spacingRight=4;overflow=hidden;rotatable=0;points=[[0,0.5],[1,0.5]];portConstraint=eastwest;" parent="XFF1efjOaS3Mmj5Ojrwr-2" vertex="1">
                    <mxGeometry y="164" width="210" height="26" as="geometry"/>
                </mxCell>
                <mxCell id="XFF1efjOaS3Mmj5Ojrwr-8" value="+ getAge(): String" style="text;strokeColor=none;fillColor=none;align=left;verticalAlign=top;spacingLeft=4;spacingRight=4;overflow=hidden;rotatable=0;points=[[0,0.5],[1,0.5]];portConstraint=eastwest;" parent="XFF1efjOaS3Mmj5Ojrwr-2" vertex="1">
                    <mxGeometry y="190" width="210" height="26" as="geometry"/>
                </mxCell>
                <mxCell id="l7gWTdW5mP3U2acUqzkG-2" value="- checkEscalationLevel(): String" style="text;strokeColor=none;fillColor=none;align=left;verticalAlign=top;spacingLeft=4;spacingRight=4;overflow=hidden;rotatable=0;points=[[0,0.5],[1,0.5]];portConstraint=eastwest;" parent="XFF1efjOaS3Mmj5Ojrwr-2" vertex="1">
                    <mxGeometry y="216" width="210" height="26" as="geometry"/>
                </mxCell>
            </root>
        </mxGraphModel>
    </diagram>
    <diagram id="98Eyj0O5V1XzvJAqq3zj" name="Cat_TomCat">
        <mxGraphModel dx="658" dy="422" grid="1" gridSize="10" guides="1" tooltips="1" connect="1" arrows="1" fold="1" page="1" pageScale="1" pageWidth="827" pageHeight="1169" math="0" shadow="0">
            <root>
                <mxCell id="gPKQ9luva0QuNI2rWx6p-0"/>
                <mxCell id="gPKQ9luva0QuNI2rWx6p-1" parent="gPKQ9luva0QuNI2rWx6p-0"/>
                <mxCell id="gPKQ9luva0QuNI2rWx6p-2" value="Cat" style="swimlane;fontStyle=1;align=center;verticalAlign=top;childLayout=stackLayout;horizontal=1;startSize=26;horizontalStack=0;resizeParent=1;resizeParentMax=0;resizeLast=0;collapsible=1;marginBottom=0;" parent="gPKQ9luva0QuNI2rWx6p-1" vertex="1">
                    <mxGeometry x="120" y="90" width="210" height="216" as="geometry">
                        <mxRectangle x="500" y="110" width="100" height="26" as="alternateBounds"/>
                    </mxGeometry>
                </mxCell>
                <mxCell id="gPKQ9luva0QuNI2rWx6p-3" value="- name: String" style="text;strokeColor=none;fillColor=none;align=left;verticalAlign=top;spacingLeft=4;spacingRight=4;overflow=hidden;rotatable=0;points=[[0,0.5],[1,0.5]];portConstraint=eastwest;" parent="gPKQ9luva0QuNI2rWx6p-2" vertex="1">
                    <mxGeometry y="26" width="210" height="26" as="geometry"/>
                </mxCell>
                <mxCell id="gPKQ9luva0QuNI2rWx6p-4" value="- furColor: String" style="text;strokeColor=none;fillColor=none;align=left;verticalAlign=top;spacingLeft=4;spacingRight=4;overflow=hidden;rotatable=0;points=[[0,0.5],[1,0.5]];portConstraint=eastwest;" parent="gPKQ9luva0QuNI2rWx6p-2" vertex="1">
                    <mxGeometry y="52" width="210" height="26" as="geometry"/>
                </mxCell>
                <mxCell id="gPKQ9luva0QuNI2rWx6p-5" value="- age: int" style="text;strokeColor=none;fillColor=none;align=left;verticalAlign=top;spacingLeft=4;spacingRight=4;overflow=hidden;rotatable=0;points=[[0,0.5],[1,0.5]];portConstraint=eastwest;" parent="gPKQ9luva0QuNI2rWx6p-2" vertex="1">
                    <mxGeometry y="78" width="210" height="26" as="geometry"/>
                </mxCell>
                <mxCell id="gPKQ9luva0QuNI2rWx6p-7" value="- counter: int" style="text;strokeColor=none;fillColor=none;align=left;verticalAlign=top;spacingLeft=4;spacingRight=4;overflow=hidden;rotatable=0;points=[[0,0.5],[1,0.5]];portConstraint=eastwest;" parent="gPKQ9luva0QuNI2rWx6p-2" vertex="1">
                    <mxGeometry y="104" width="210" height="26" as="geometry"/>
                </mxCell>
                <mxCell id="gPKQ9luva0QuNI2rWx6p-8" value="" style="line;strokeWidth=1;fillColor=none;align=left;verticalAlign=middle;spacingTop=-1;spacingLeft=3;spacingRight=3;rotatable=0;labelPosition=right;points=[];portConstraint=eastwest;" parent="gPKQ9luva0QuNI2rWx6p-2" vertex="1">
                    <mxGeometry y="130" width="210" height="8" as="geometry"/>
                </mxCell>
                <mxCell id="gPKQ9luva0QuNI2rWx6p-9" value="+ getStringAttributes(String): String" style="text;strokeColor=none;fillColor=none;align=left;verticalAlign=top;spacingLeft=4;spacingRight=4;overflow=hidden;rotatable=0;points=[[0,0.5],[1,0.5]];portConstraint=eastwest;" parent="gPKQ9luva0QuNI2rWx6p-2" vertex="1">
                    <mxGeometry y="138" width="210" height="26" as="geometry"/>
                </mxCell>
                <mxCell id="gPKQ9luva0QuNI2rWx6p-10" value="+ getAge(): String" style="text;strokeColor=none;fillColor=none;align=left;verticalAlign=top;spacingLeft=4;spacingRight=4;overflow=hidden;rotatable=0;points=[[0,0.5],[1,0.5]];portConstraint=eastwest;" parent="gPKQ9luva0QuNI2rWx6p-2" vertex="1">
                    <mxGeometry y="164" width="210" height="26" as="geometry"/>
                </mxCell>
                <mxCell id="gPKQ9luva0QuNI2rWx6p-11" value="- checkEscalationLevel(): String" style="text;strokeColor=none;fillColor=none;align=left;verticalAlign=top;spacingLeft=4;spacingRight=4;overflow=hidden;rotatable=0;points=[[0,0.5],[1,0.5]];portConstraint=eastwest;" parent="gPKQ9luva0QuNI2rWx6p-2" vertex="1">
                    <mxGeometry y="190" width="210" height="26" as="geometry"/>
                </mxCell>
                <mxCell id="gPKQ9luva0QuNI2rWx6p-12" value="Tomcat" style="swimlane;fontStyle=1;align=center;verticalAlign=top;childLayout=stackLayout;horizontal=1;startSize=26;horizontalStack=0;resizeParent=1;resizeParentMax=0;resizeLast=0;collapsible=1;marginBottom=0;" parent="gPKQ9luva0QuNI2rWx6p-1" vertex="1">
                    <mxGeometry x="410" y="90" width="210" height="164" as="geometry">
                        <mxRectangle x="500" y="110" width="100" height="26" as="alternateBounds"/>
                    </mxGeometry>
                </mxCell>
                <mxCell id="gPKQ9luva0QuNI2rWx6p-13" value="- name: String" style="text;strokeColor=none;fillColor=none;align=left;verticalAlign=top;spacingLeft=4;spacingRight=4;overflow=hidden;rotatable=0;points=[[0,0.5],[1,0.5]];portConstraint=eastwest;" parent="gPKQ9luva0QuNI2rWx6p-12" vertex="1">
                    <mxGeometry y="26" width="210" height="26" as="geometry"/>
                </mxCell>
                <mxCell id="gPKQ9luva0QuNI2rWx6p-14" value="- furColor: String" style="text;strokeColor=none;fillColor=none;align=left;verticalAlign=top;spacingLeft=4;spacingRight=4;overflow=hidden;rotatable=0;points=[[0,0.5],[1,0.5]];portConstraint=eastwest;" parent="gPKQ9luva0QuNI2rWx6p-12" vertex="1">
                    <mxGeometry y="52" width="210" height="26" as="geometry"/>
                </mxCell>
                <mxCell id="gPKQ9luva0QuNI2rWx6p-15" value="- age: int" style="text;strokeColor=none;fillColor=none;align=left;verticalAlign=top;spacingLeft=4;spacingRight=4;overflow=hidden;rotatable=0;points=[[0,0.5],[1,0.5]];portConstraint=eastwest;" parent="gPKQ9luva0QuNI2rWx6p-12" vertex="1">
                    <mxGeometry y="78" width="210" height="26" as="geometry"/>
                </mxCell>
                <mxCell id="gPKQ9luva0QuNI2rWx6p-18" value="" style="line;strokeWidth=1;fillColor=none;align=left;verticalAlign=middle;spacingTop=-1;spacingLeft=3;spacingRight=3;rotatable=0;labelPosition=right;points=[];portConstraint=eastwest;" parent="gPKQ9luva0QuNI2rWx6p-12" vertex="1">
                    <mxGeometry y="104" width="210" height="8" as="geometry"/>
                </mxCell>
                <mxCell id="gPKQ9luva0QuNI2rWx6p-19" value="+ getStringAttributes(String): String" style="text;strokeColor=none;fillColor=none;align=left;verticalAlign=top;spacingLeft=4;spacingRight=4;overflow=hidden;rotatable=0;points=[[0,0.5],[1,0.5]];portConstraint=eastwest;" parent="gPKQ9luva0QuNI2rWx6p-12" vertex="1">
                    <mxGeometry y="112" width="210" height="26" as="geometry"/>
                </mxCell>
                <mxCell id="gPKQ9luva0QuNI2rWx6p-20" value="+ getAge(): String" style="text;strokeColor=none;fillColor=none;align=left;verticalAlign=top;spacingLeft=4;spacingRight=4;overflow=hidden;rotatable=0;points=[[0,0.5],[1,0.5]];portConstraint=eastwest;" parent="gPKQ9luva0QuNI2rWx6p-12" vertex="1">
                    <mxGeometry y="138" width="210" height="26" as="geometry"/>
                </mxCell>
            </root>
        </mxGraphModel>
    </diagram>
    <diagram name="SuperCat" id="wVGCht-PSc5ntxGewZA4">
        <mxGraphModel dx="579" dy="422" grid="1" gridSize="10" guides="1" tooltips="1" connect="1" arrows="1" fold="1" page="1" pageScale="1" pageWidth="827" pageHeight="1169" math="0" shadow="0">
            <root>
                <mxCell id="uf_hpbM_rkV8g4_XTHIp-0"/>
                <mxCell id="uf_hpbM_rkV8g4_XTHIp-1" parent="uf_hpbM_rkV8g4_XTHIp-0"/>
                <mxCell id="uf_hpbM_rkV8g4_XTHIp-2" value="Cat" style="swimlane;fontStyle=1;align=center;verticalAlign=top;childLayout=stackLayout;horizontal=1;startSize=26;horizontalStack=0;resizeParent=1;resizeParentMax=0;resizeLast=0;collapsible=1;marginBottom=0;" vertex="1" parent="uf_hpbM_rkV8g4_XTHIp-1">
                    <mxGeometry x="80" y="280" width="210" height="112" as="geometry">
                        <mxRectangle x="500" y="110" width="100" height="26" as="alternateBounds"/>
                    </mxGeometry>
                </mxCell>
                <mxCell id="uf_hpbM_rkV8g4_XTHIp-6" value="- counter: int" style="text;strokeColor=none;fillColor=none;align=left;verticalAlign=top;spacingLeft=4;spacingRight=4;overflow=hidden;rotatable=0;points=[[0,0.5],[1,0.5]];portConstraint=eastwest;" vertex="1" parent="uf_hpbM_rkV8g4_XTHIp-2">
                    <mxGeometry y="26" width="210" height="26" as="geometry"/>
                </mxCell>
                <mxCell id="uf_hpbM_rkV8g4_XTHIp-7" value="" style="line;strokeWidth=1;fillColor=none;align=left;verticalAlign=middle;spacingTop=-1;spacingLeft=3;spacingRight=3;rotatable=0;labelPosition=right;points=[];portConstraint=eastwest;" vertex="1" parent="uf_hpbM_rkV8g4_XTHIp-2">
                    <mxGeometry y="52" width="210" height="8" as="geometry"/>
                </mxCell>
                <mxCell id="uf_hpbM_rkV8g4_XTHIp-9" value="+ getAge(): String" style="text;strokeColor=none;fillColor=none;align=left;verticalAlign=top;spacingLeft=4;spacingRight=4;overflow=hidden;rotatable=0;points=[[0,0.5],[1,0.5]];portConstraint=eastwest;" vertex="1" parent="uf_hpbM_rkV8g4_XTHIp-2">
                    <mxGeometry y="60" width="210" height="26" as="geometry"/>
                </mxCell>
                <mxCell id="uf_hpbM_rkV8g4_XTHIp-10" value="- checkEscalationLevel(): String" style="text;strokeColor=none;fillColor=none;align=left;verticalAlign=top;spacingLeft=4;spacingRight=4;overflow=hidden;rotatable=0;points=[[0,0.5],[1,0.5]];portConstraint=eastwest;" vertex="1" parent="uf_hpbM_rkV8g4_XTHIp-2">
                    <mxGeometry y="86" width="210" height="26" as="geometry"/>
                </mxCell>
                <mxCell id="uf_hpbM_rkV8g4_XTHIp-11" value="Tomcat" style="swimlane;fontStyle=1;align=center;verticalAlign=top;childLayout=stackLayout;horizontal=1;startSize=26;horizontalStack=0;resizeParent=1;resizeParentMax=0;resizeLast=0;collapsible=1;marginBottom=0;" vertex="1" parent="uf_hpbM_rkV8g4_XTHIp-1">
                    <mxGeometry x="430" y="280" width="210" height="60" as="geometry">
                        <mxRectangle x="500" y="110" width="100" height="26" as="alternateBounds"/>
                    </mxGeometry>
                </mxCell>
                <mxCell id="uf_hpbM_rkV8g4_XTHIp-15" value="" style="line;strokeWidth=1;fillColor=none;align=left;verticalAlign=middle;spacingTop=-1;spacingLeft=3;spacingRight=3;rotatable=0;labelPosition=right;points=[];portConstraint=eastwest;" vertex="1" parent="uf_hpbM_rkV8g4_XTHIp-11">
                    <mxGeometry y="26" width="210" height="8" as="geometry"/>
                </mxCell>
                <mxCell id="uf_hpbM_rkV8g4_XTHIp-17" value="+ getAge(): String" style="text;strokeColor=none;fillColor=none;align=left;verticalAlign=top;spacingLeft=4;spacingRight=4;overflow=hidden;rotatable=0;points=[[0,0.5],[1,0.5]];portConstraint=eastwest;" vertex="1" parent="uf_hpbM_rkV8g4_XTHIp-11">
                    <mxGeometry y="34" width="210" height="26" as="geometry"/>
                </mxCell>
                <mxCell id="uf_hpbM_rkV8g4_XTHIp-18" value="SuperCat&#10;" style="swimlane;fontStyle=1;align=center;verticalAlign=top;childLayout=stackLayout;horizontal=1;startSize=26;horizontalStack=0;resizeParent=1;resizeParentMax=0;resizeLast=0;collapsible=1;marginBottom=0;" vertex="1" parent="uf_hpbM_rkV8g4_XTHIp-1">
                    <mxGeometry x="260" y="30" width="210" height="138" as="geometry">
                        <mxRectangle x="500" y="110" width="100" height="26" as="alternateBounds"/>
                    </mxGeometry>
                </mxCell>
                <mxCell id="uf_hpbM_rkV8g4_XTHIp-19" value="- name: String" style="text;strokeColor=none;fillColor=none;align=left;verticalAlign=top;spacingLeft=4;spacingRight=4;overflow=hidden;rotatable=0;points=[[0,0.5],[1,0.5]];portConstraint=eastwest;" vertex="1" parent="uf_hpbM_rkV8g4_XTHIp-18">
                    <mxGeometry y="26" width="210" height="26" as="geometry"/>
                </mxCell>
                <mxCell id="uf_hpbM_rkV8g4_XTHIp-20" value="- furColor: String" style="text;strokeColor=none;fillColor=none;align=left;verticalAlign=top;spacingLeft=4;spacingRight=4;overflow=hidden;rotatable=0;points=[[0,0.5],[1,0.5]];portConstraint=eastwest;" vertex="1" parent="uf_hpbM_rkV8g4_XTHIp-18">
                    <mxGeometry y="52" width="210" height="26" as="geometry"/>
                </mxCell>
                <mxCell id="uf_hpbM_rkV8g4_XTHIp-21" value="- age: int" style="text;strokeColor=none;fillColor=none;align=left;verticalAlign=top;spacingLeft=4;spacingRight=4;overflow=hidden;rotatable=0;points=[[0,0.5],[1,0.5]];portConstraint=eastwest;" vertex="1" parent="uf_hpbM_rkV8g4_XTHIp-18">
                    <mxGeometry y="78" width="210" height="26" as="geometry"/>
                </mxCell>
                <mxCell id="uf_hpbM_rkV8g4_XTHIp-23" value="" style="line;strokeWidth=1;fillColor=none;align=left;verticalAlign=middle;spacingTop=-1;spacingLeft=3;spacingRight=3;rotatable=0;labelPosition=right;points=[];portConstraint=eastwest;" vertex="1" parent="uf_hpbM_rkV8g4_XTHIp-18">
                    <mxGeometry y="104" width="210" height="8" as="geometry"/>
                </mxCell>
                <mxCell id="uf_hpbM_rkV8g4_XTHIp-24" value="+ getStringAttributes(String): String" style="text;strokeColor=none;fillColor=none;align=left;verticalAlign=top;spacingLeft=4;spacingRight=4;overflow=hidden;rotatable=0;points=[[0,0.5],[1,0.5]];portConstraint=eastwest;" vertex="1" parent="uf_hpbM_rkV8g4_XTHIp-18">
                    <mxGeometry y="112" width="210" height="26" as="geometry"/>
                </mxCell>
                <mxCell id="uf_hpbM_rkV8g4_XTHIp-30" value="Extends" style="endArrow=block;endSize=16;endFill=0;html=1;exitX=0.5;exitY=0;exitDx=0;exitDy=0;" edge="1" parent="uf_hpbM_rkV8g4_XTHIp-1" source="uf_hpbM_rkV8g4_XTHIp-2" target="uf_hpbM_rkV8g4_XTHIp-24">
                    <mxGeometry width="160" relative="1" as="geometry">
                        <mxPoint x="200" y="210" as="sourcePoint"/>
                        <mxPoint x="360" y="210" as="targetPoint"/>
                    </mxGeometry>
                </mxCell>
                <mxCell id="uf_hpbM_rkV8g4_XTHIp-31" value="Extends" style="endArrow=block;endSize=16;endFill=0;html=1;exitX=0.5;exitY=0;exitDx=0;exitDy=0;" edge="1" parent="uf_hpbM_rkV8g4_XTHIp-1" source="uf_hpbM_rkV8g4_XTHIp-11" target="uf_hpbM_rkV8g4_XTHIp-24">
                    <mxGeometry width="160" relative="1" as="geometry">
                        <mxPoint x="230" y="233" as="sourcePoint"/>
                        <mxPoint x="360" y="170" as="targetPoint"/>
                    </mxGeometry>
                </mxCell>
            </root>
        </mxGraphModel>
    </diagram>
</mxfile>